<svg width="48" height="48" viewBox="0 0 48 48" fill="none" xmlns="http://www.w3.org/2000/svg">
  <path fill-rule="evenodd" clip-rule="evenodd" d="M24 48C37.2539 48 48 37.2549 48 24C48 10.7451 37.2539 0 24 0C10.7461 0 0 10.7451 0 24C0 37.2549 10.7461 48 24 48ZM16.4297 11.4812L13.9336 8.04175L12.2734 9.16357L14.7695 12.603L12.7344 12.158L12.2891 14.0671L15.5156 14.7725C14.25 16.5037 14.293 18.9231 15.8203 20.6211L30.6836 37.1465C31.6953 38.2749 33.4336 38.4797 34.707 37.6206C35.9961 36.7498 36.3828 35.0735 35.5938 33.7634L30.4219 25.1685L28.5586 26.4248C27.6406 27.0459 26.375 26.832 25.7305 25.9473C25.0898 25.0627 25.3125 23.842 26.2344 23.2209L28.1367 21.9358L28.2422 21.8726L28.3867 21.791L27.0625 19.5913L23.4297 22.0454C22.9414 22.374 22.3594 22.4688 21.8203 22.3542C21.3438 22.2522 20.9023 21.9844 20.6016 21.5679C19.957 20.6833 20.1836 19.4626 21.1016 18.8416L25.0234 16.2002L24.207 14.8479C22.9922 12.8267 20.4844 12.0151 18.3086 12.7561L18.9453 7.92749L16.9336 7.67871L16.4297 11.4812Z" fill="#013F40"/>
  <path d="M16.4297 11.4812L13.9336 8.04175L12.2734 9.16357L14.7695 12.603L12.7344 12.158L12.2891 14.0671L15.5156 14.7725C14.25 16.5037 14.293 18.9231 15.8203 20.6211L30.6836 37.1465C31.6953 38.2749 33.4336 38.4797 34.707 37.6206C35.9961 36.7498 36.3828 35.0735 35.5938 33.7634L30.4219 25.1685L28.5586 26.4248C27.6406 27.0459 26.375 26.832 25.7305 25.9473C25.0898 25.0627 25.3125 23.842 26.2344 23.2209L28.1367 21.9358L28.2422 21.8726L28.3867 21.791L27.0625 19.5913L23.4297 22.0454C22.9414 22.374 22.3594 22.4688 21.8203 22.3542C21.3438 22.2522 20.9023 21.9844 20.6016 21.5679C19.957 20.6833 20.1836 19.4626 21.1016 18.8416L25.0234 16.2002L24.207 14.8479C22.9922 12.8267 20.4844 12.0151 18.3086 12.7561L18.9453 7.92749L16.9336 7.67871L16.4297 11.4812Z" fill="#7DD15F"/>
</svg>
